:SAMPLES-PER-SECOND 30
:FULLY-SPECIFIED
:DEGREES
19
root  22.69244457 36.87777782 -59.34800276 -2.643749952 -9.472359657 -0.906175971
lowerback  5.359710217 1.598289967 2.952510118
upperback  2.994410038 2.256979942 0.6268420219
thorax  0.1670760065 1.156530023 -1.123540044
lowerneck  -11.87300014 3.783169985 -1.182559967
upperneck  -3.639940023 5.166900158 -0.9966089725
head  0.8288959861 2.571840048 0.1021440029
lclavicle  0 -1.620099928e-014 -1.431250036e-014
lhumerus  -45.52740097 32.76649857 67.74810028
lradius  -3.347913408e-031 -1.122639681e-031 18.53759956
lwrist  0 -3.531125038e-030 8.617150307
lhand  -1.522208093e-030 -21.89089966 22.84740067
lfingers  90 7.125020027 -90
lthumb  90.61603193 7.755020578 85.4441456
rclavicle  0 -1.620099928e-014 -1.431250036e-014
rhumerus  -14.15270042 10.66889954 -87.05329895
rradius  2.900294318e-031 2.014233578e-031 34.77970123
rwrist  5.649800062e-030 -4.943575054e-030 -13.91049957
rhand  1.570731925e-030 -25.9428997 18.57430077
rfingers  -90 -7.125020027 -90
rthumb  -89.60083768 -33.59330664 -89.2785978
rfemur  11.82549953 2.180919886 25.17939949
rtibia  -0 0 39.00730133
rfoot  -4.414539395e-032 0.9703649879 5.241509914
rtoes  -1.575397198 19.94038992 -85.38945295
lfemur  -25.8178997 -0.1885029972 -25.07139969
ltibia  -0 0 36.8614006
lfoot  -0 -9.480369568 11.44880009
ltoes  -3.695914299 -19.66929668 -100.8636129
20
root  22.68422194 36.90199965 -58.96000299 -2.762109995 -9.715220451 -0.8312469721
lowerback  5.505380154 1.660410047 2.934809923
upperback  2.901560068 2.345910072 0.5620989799
thorax  -0.00381362997 1.198070049 -1.191269994
lowerneck  -11.65979958 3.779380083 -1.053439975
upperneck  -3.710459948 5.142399788 -1.067669988
head  0.7756549716 2.55821991 0.0521623008
lclavicle  0 -1.620099928e-014 -1.431250036e-014
lhumerus  -44.79169846 32.46409988 68.28109741
lradius  -3.347562507e-031 -1.123685588e-031 18.55550003
lwrist  0 -7.062250077e-031 8.218759537
lhand  -1.522208093e-030 -21.89089966 22.84740067
lfingers  90 7.125020027 -90
lthumb  90.61603193 7.755020578 85.4441456
rclavicle  0 -1.620099928e-014 -1.431250036e-014
rhumerus  -14.59189987 10.35159969 -87.33640289
rradius  2.942182087e-031 1.952539015e-031 33.56969833
rwrist  2.824900031e-030 -7.062250077e-030 -13.68879986
rhand  1.570731925e-030 -25.9428997 18.57430077
rfingers  -90 -7.125020027 -90
rthumb  -89.60083768 -33.59330664 -89.2785978
rfemur  10.54209995 2.738019943 24.93289948
rtibia  -0 0 41.76470184
rfoot  -4.424691198e-032 4.001220226 5.37432003
rtoes  -1.575397198 19.94038992 -85.38945295
lfemur  -25.07360077 -0.2124940008 -25.2098999
ltibia  -0 0 36.98289871
lfoot  -0 -10.1491003 11.47340012
ltoes  -3.695914299 -19.66929668 -100.8636129
21
root  22.67844433 36.91288805 -58.58800092 -2.873460054 -9.754010201 -0.4834659994
lowerback  5.520060062 1.671790004 2.701699972
upperback  2.955219984 2.348530054 0.3856109977
thorax  0.04096309841 1.199349999 -1.241580009
lowerneck  -11.82079983 3.801640034 -0.7144140005
upperneck  -3.663300037 5.133160114 -1.373520017
head  0.8358430266 2.543060064 -0.0937210992
lclavicle  0 -1.620099928e-014 -1.431250036e-014
lhumerus  -43.49940109 31.79599953 69.44470215
lradius  -3.343213298e-031 -1.136560109e-031 18.77599907
lwrist  0 -2.118675023e-030 8.892720222
lhand  -1.522208093e-030 -21.89089966 22.84740067
lfingers  90 7.125020027 -90
lthumb  90.61603193 7.755020578 85.4441456
rclavicle  0 -1.620099928e-014 -1.431250036e-014
rhumerus  -15.15820026 10.41209984 -87.59329987
rradius  2.964233515e-031 1.918896481e-031 32.91699982
rwrist  2.824900031e-030 -4.237350046e-030 -13.66679955
rhand  1.570731925e-030 -25.9428997 18.57430077
rfingers  -90 -7.125020027 -90
rthumb  -89.60083768 -33.59330664 -89.2785978
rfemur  9.167220116 3.17685008 24.39889908
rtibia  -0 0 44.59870148
rfoot  -4.445735952e-032 6.860270023 5.32986021
rtoes  -1.575397198 19.94038992 -85.38945295
lfemur  -24.26379967 -0.5066739917 -25.6602993
ltibia  -0 0 36.91650009
lfoot  -0 -11.16359997 11.76080036
ltoes  -3.695914299 -19.66929668 -100.8636129
22
root  22.66866729 36.95422195 -58.22511207 -2.985470057 -9.895090103 -0.1885499954
lowerback  5.647960186 1.689730048 2.398250103
upperback  2.964740038 2.361099958 0.3123390079
thorax  -0.02961610071 1.202039957 -1.152160048
lowerneck  -12.05389977 3.771399975 -0.5852059722
upperneck  -3.428280115 5.083399773 -1.613440037
head  0.9618710279 2.508709908 -0.1829780042
lclavicle  0 -1.620099928e-014 -1.431250036e-014
lhumerus  -42.39889908 31.08180046 70.64769745
lradius  -3.33509596e-031 -1.160163341e-031 19.18099976
lwrist  -2.824900031e-030 -4.237350046e-030 9.80618
lhand  -1.522208093e-030 -21.89089966 22.84740067
lfingers  90 7.125020027 -90
lthumb  90.61603193 7.755020578 85.4441456
rclavicle  0 -1.620099928e-014 -1.431250036e-014
rhumerus  -15.6491003 10.39000034 -87.75759888
rradius  2.99568682e-031 1.86941288e-031 31.96559906
rwrist  2.824900031e-030 -1.412450015e-030 -13.19470024
rhand  1.570731925e-030 -25.9428997 18.57430077
rfingers  -90 -7.125020027 -90
rthumb  -89.60083768 -33.59330664 -89.2785978
rfemur  7.663780212 3.563290119 23.87969971
rtibia  -0 0 47.47769928
rfoot  -4.478855296e-032 9.769370079 5.046720028
rtoes  -1.575397198 19.94038992 -85.38945295
lfemur  -23.40270042 -0.4255209863 -26.07299995
ltibia  -0 0 36.69250107
lfoot  -0 -11.88659954 11.69260025
ltoes  -3.695914299 -19.66929668 -100.8636129
